<?xml version="1.0" encoding="UTF-8" ?>
<!DOCTYPE svg PUBLIC "-//W3C//DTD SVG 1.1//EN" "http://www.w3.org/Graphics/SVG/1.1/DTD/svg11.dtd">
<svg width="512pt" height="402pt" viewBox="0 0 512 402" version="1.1" xmlns="http://www.w3.org/2000/svg">
<g id="#000000ff">
<path fill="#b5b5b5" opacity="1.00" d=" M 20.20 0.00 L 491.80 0.00 C 501.17 1.97 509.71 8.82 512.00 18.33 L 512.00 383.77 C 508.98 392.91 501.65 400.88 491.70 402.00 L 20.20 402.00 C 10.83 400.03 2.29 393.18 0.00 383.67 L 0.00 18.33 C 2.29 8.82 10.83 1.97 20.20 0.00 M 149.15 144.17 C 135.56 169.04 135.84 198.61 137.78 226.05 C 139.54 245.53 144.72 266.51 160.25 279.74 C 174.59 293.46 196.42 295.97 214.97 290.93 C 231.62 286.26 244.76 272.34 250.17 256.12 C 254.52 241.20 253.98 224.78 248.91 210.09 C 241.03 189.94 219.16 173.91 196.99 177.85 C 186.90 178.38 178.74 185.05 171.31 191.21 C 172.61 178.97 173.42 166.21 179.01 155.00 C 183.24 146.13 193.89 140.77 203.57 143.44 C 214.10 145.07 215.99 160.37 227.01 160.87 C 237.29 162.09 246.48 152.14 244.14 141.97 C 241.44 132.79 233.42 126.26 225.73 121.26 C 199.55 107.74 163.29 117.93 149.15 144.17 M 393.60 122.55 C 383.36 128.52 375.58 138.15 370.91 148.95 C 366.72 159.36 366.61 170.92 367.12 181.97 C 367.96 205.15 386.07 226.96 409.12 230.84 C 423.32 233.46 437.71 227.63 448.22 218.16 C 446.58 231.83 446.56 247.18 437.35 258.35 C 430.57 266.78 416.13 269.14 408.57 260.52 C 403.42 254.34 396.77 245.35 387.44 248.45 C 381.26 249.13 377.28 254.92 375.30 260.31 C 373.81 269.32 379.96 277.12 386.32 282.66 C 398.98 293.49 417.14 295.31 432.96 292.01 C 451.18 288.38 466.70 274.93 473.91 257.95 C 482.84 237.64 483.45 214.86 482.81 193.04 C 481.59 172.55 478.53 150.47 464.72 134.27 C 447.85 113.86 416.17 109.46 393.60 122.55 M 76.13 120.12 C 68.72 127.74 63.82 137.68 54.99 143.99 C 46.95 151.32 36.28 154.93 28.30 162.28 C 20.72 171.92 31.40 187.70 43.32 183.37 C 53.03 179.63 60.98 172.41 68.98 165.95 C 69.52 203.82 68.06 241.75 69.58 279.58 C 71.83 291.73 89.02 296.19 97.27 287.27 C 104.03 281.49 101.43 271.71 102.11 264.01 C 101.70 220.68 102.40 177.34 101.82 134.02 C 103.81 120.92 85.99 111.52 76.13 120.12 M 308.43 138.48 C 296.91 141.11 287.39 152.91 289.05 164.95 C 288.87 179.66 303.86 192.31 318.39 189.48 C 332.94 188.01 344.23 172.24 340.06 157.97 C 337.45 144.16 321.98 134.79 308.43 138.48 M 309.44 219.52 C 302.83 220.98 296.49 225.08 293.14 231.10 C 284.06 243.32 290.01 263.28 304.22 268.76 C 319.43 276.54 339.52 264.61 340.66 247.82 C 343.38 230.85 325.87 215.57 309.44 219.52 Z" />
<path fill="#b5b5b5" opacity="1.00" d=" M 416.45 143.52 C 428.79 140.52 440.73 150.78 443.43 162.44 C 446.49 175.07 447.18 190.57 437.85 200.84 C 430.47 207.73 418.31 209.34 410.13 202.88 C 398.92 194.40 398.94 178.66 399.84 165.94 C 400.26 156.26 406.20 145.26 416.45 143.52 Z" />
<path fill="#b5b5b5" opacity="1.00" d=" M 192.43 202.44 C 205.77 199.13 218.60 210.52 219.42 223.59 C 220.47 236.02 222.13 251.59 211.86 260.85 C 204.89 267.64 193.23 267.21 185.99 261.02 C 175.27 253.04 173.80 238.61 174.32 226.31 C 175.07 215.87 181.54 204.67 192.43 202.44 Z" />
</g>
</svg>
