<?xml version="1.0" encoding="UTF-8" ?>
<!DOCTYPE svg PUBLIC "-//W3C//DTD SVG 1.1//EN" "http://www.w3.org/Graphics/SVG/1.1/DTD/svg11.dtd">
<svg width="512pt" height="476pt" viewBox="0 0 512 476" version="1.1" xmlns="http://www.w3.org/2000/svg">
<g id="#000000ff">
<path fill="#b5b5b5" opacity="1.00" d=" M 17.30 0.00 L 494.70 0.00 C 503.19 2.31 509.02 9.35 512.00 17.32 L 512.00 458.69 C 510.18 462.48 508.55 466.54 505.63 469.64 C 502.38 472.36 498.59 474.39 494.68 476.00 L 17.30 476.00 C 8.80 473.68 2.98 466.65 0.00 458.68 L 0.00 17.32 C 2.98 9.35 8.80 2.31 17.30 0.00 M 378.44 126.53 C 358.73 128.78 338.73 139.50 330.08 158.06 C 324.53 166.42 327.30 178.91 336.02 183.95 C 342.51 188.56 351.79 187.52 358.01 183.01 C 364.13 177.11 367.45 168.44 374.98 163.98 C 385.94 157.11 402.74 160.09 409.37 171.65 C 414.81 183.25 412.53 199.81 400.92 206.87 C 394.34 211.70 385.67 212.24 379.10 217.07 C 373.74 223.66 374.33 233.59 380.68 239.32 C 387.98 246.73 400.09 242.66 408.00 248.98 C 417.77 255.85 421.72 268.49 421.02 280.01 C 421.53 292.82 414.90 306.41 402.98 311.94 C 390.61 318.21 373.32 314.15 366.37 301.77 C 362.16 295.33 357.79 287.26 349.55 285.53 C 337.28 282.07 324.15 292.61 324.47 305.19 C 325.06 314.99 331.62 323.07 338.21 329.79 C 363.06 354.02 404.77 355.99 433.40 337.41 C 446.59 328.40 457.08 315.06 461.64 299.65 C 466.50 281.57 465.08 260.32 452.39 245.64 C 445.86 235.92 434.47 232.06 424.04 228.19 C 431.10 222.23 439.53 217.67 444.91 209.93 C 451.04 202.04 454.86 192.07 454.14 181.98 C 454.49 159.50 438.31 139.29 417.96 131.09 C 405.69 125.33 391.66 125.20 378.44 126.53 M 124.82 142.86 C 100.11 178.83 75.94 215.18 50.94 250.96 C 45.72 259.10 38.60 267.93 40.53 278.33 C 41.19 292.00 53.74 303.11 67.12 303.76 C 88.04 304.54 109.01 303.72 129.95 304.00 C 131.06 315.96 126.66 330.03 134.68 340.32 C 141.42 349.15 155.70 350.19 163.83 342.82 C 174.24 332.84 170.04 317.13 171.17 304.39 C 179.00 303.25 188.63 304.04 193.74 296.77 C 200.20 289.42 199.19 276.64 190.89 271.13 C 185.58 265.96 177.69 267.10 171.02 266.60 C 170.55 227.54 171.82 188.43 170.48 149.39 C 170.23 137.14 158.47 125.90 146.03 128.07 C 136.29 127.50 129.74 135.65 124.82 142.86 M 248.44 145.54 C 236.90 147.91 226.75 156.91 223.22 168.20 C 218.65 181.35 222.80 197.43 233.94 206.07 C 245.42 215.95 263.51 216.53 275.83 207.84 C 289.86 198.68 295.14 178.71 287.08 163.95 C 280.78 149.50 263.58 142.02 248.44 145.54 M 255.36 261.41 C 243.32 261.72 231.85 268.38 225.93 278.93 C 218.84 290.86 220.19 307.24 229.03 317.93 C 238.61 330.87 258.02 334.35 272.06 327.07 C 286.26 320.15 294.02 302.56 289.59 287.40 C 286.10 272.17 270.91 260.79 255.36 261.41 Z" />
<path fill="#b5b5b5" opacity="1.00" d=" M 79.71 266.84 C 96.14 241.63 113.35 216.93 129.81 191.74 C 130.19 216.82 129.95 241.90 129.99 266.98 C 113.23 267.02 96.47 267.10 79.71 266.84 Z" />
</g>
</svg>
