<?xml version="1.0" encoding="UTF-8" ?>
<!DOCTYPE svg PUBLIC "-//W3C//DTD SVG 1.1//EN" "http://www.w3.org/Graphics/SVG/1.1/DTD/svg11.dtd">
<svg width="76pt" height="88pt" viewBox="0 0 76 88" version="1.1" xmlns="http://www.w3.org/2000/svg">
<g id="#706f6fff">
<path fill="#706f6f" opacity="1.00" d=" M 0.00 0.00 L 76.00 0.00 L 76.00 71.94 C 75.25 71.97 73.76 72.03 73.01 72.06 C 72.99 77.37 72.99 82.68 73.00 88.00 L 3.00 88.00 C 3.01 82.68 3.01 77.37 2.99 72.06 C 2.24 72.03 0.75 71.97 0.00 71.94 L 0.00 0.00 M 3.00 4.00 C 3.00 25.67 3.00 47.33 3.00 69.00 C 4.33 69.00 5.67 69.00 7.00 69.00 C 7.00 72.75 7.00 80.25 7.00 84.00 C 27.67 84.00 48.33 84.00 69.00 84.00 C 69.00 80.25 69.00 72.75 69.00 69.00 C 70.33 69.00 71.67 69.00 73.00 69.00 C 73.00 47.33 73.00 25.67 73.00 4.00 C 71.50 4.00 68.50 4.00 67.00 4.00 C 67.00 23.00 67.00 42.00 67.00 61.00 C 54.67 61.00 42.33 61.00 30.00 61.00 C 30.00 42.00 30.00 23.00 30.00 4.00 C 21.00 4.00 12.00 4.00 3.00 4.00 M 32.00 4.00 C 32.00 22.33 32.00 40.67 32.00 59.00 C 43.00 59.00 54.00 59.00 65.00 59.00 C 65.00 40.67 65.00 22.33 65.00 4.00 C 54.00 4.00 43.00 4.00 32.00 4.00 Z" />
<path fill="#706f6f" opacity="1.00" d=" M 12.00 11.00 C 15.75 11.00 23.25 11.00 27.00 11.00 C 27.00 11.75 27.00 13.25 27.00 14.00 C 23.25 14.00 15.75 14.00 12.00 14.00 C 12.00 13.25 12.00 11.75 12.00 11.00 Z" />
<path fill="#706f6f" opacity="1.00" d=" M 12.00 19.00 C 15.75 19.00 23.25 19.00 27.00 19.00 C 27.00 19.75 27.00 21.25 27.00 22.00 C 23.25 22.00 15.75 22.00 12.00 22.00 C 12.00 21.25 12.00 19.75 12.00 19.00 Z" />
<path fill="#706f6f" opacity="1.00" d=" M 12.00 27.00 C 15.75 27.00 23.25 27.00 27.00 27.00 C 27.00 27.75 27.00 29.25 27.00 30.00 C 23.25 30.00 15.75 30.00 12.00 30.00 C 12.00 29.25 12.00 27.75 12.00 27.00 Z" />
<path fill="#706f6f" opacity="1.00" d=" M 12.00 35.00 C 15.75 35.00 23.25 35.00 27.00 35.00 C 27.00 35.75 27.00 37.25 27.00 38.00 C 23.25 38.00 15.75 38.00 12.00 38.00 C 12.00 37.25 12.00 35.75 12.00 35.00 Z" />
<path fill="#706f6f" opacity="1.00" d=" M 12.00 43.00 C 15.75 43.00 23.25 43.00 27.00 43.00 C 27.00 43.75 27.00 45.25 27.00 46.00 C 23.25 46.00 15.75 46.00 12.00 46.00 C 12.00 45.25 12.00 43.75 12.00 43.00 Z" />
<path fill="#706f6f" opacity="1.00" d=" M 12.00 51.00 C 15.75 51.00 23.25 51.00 27.00 51.00 C 27.00 51.75 27.00 53.25 27.00 54.00 C 23.25 54.00 15.75 54.00 12.00 54.00 C 12.00 53.25 12.00 51.75 12.00 51.00 Z" />
<path fill="#706f6f" opacity="1.00" d=" M 12.00 59.00 C 15.75 59.00 23.25 59.00 27.00 59.00 C 27.00 59.75 27.00 61.25 27.00 62.00 C 23.25 62.00 15.75 62.00 12.00 62.00 C 12.00 61.25 12.00 59.75 12.00 59.00 Z" />
<path fill="#706f6f" opacity="1.00" d=" M 12.00 67.00 C 15.75 67.00 23.25 67.00 27.00 67.00 C 27.00 67.75 27.00 69.25 27.00 70.00 C 23.25 70.00 15.75 70.00 12.00 70.00 C 12.00 69.25 12.00 67.75 12.00 67.00 Z" />
<path fill="#706f6f" opacity="1.00" d=" M 12.00 75.00 C 15.75 75.00 23.25 75.00 27.00 75.00 C 27.00 75.75 27.00 77.25 27.00 78.00 C 23.25 78.00 15.75 78.00 12.00 78.00 C 12.00 77.25 12.00 75.75 12.00 75.00 Z" />
</g>
<g id="#eaeaeaff">
<path fill="#eaeaea" opacity="1.00" d=" M 3.00 4.00 C 12.00 4.00 21.00 4.00 30.00 4.00 C 30.00 23.00 30.00 42.00 30.00 61.00 C 42.33 61.00 54.67 61.00 67.00 61.00 C 67.00 42.00 67.00 23.00 67.00 4.00 C 68.50 4.00 71.50 4.00 73.00 4.00 C 73.00 25.67 73.00 47.33 73.00 69.00 C 71.67 69.00 70.33 69.00 69.00 69.00 C 69.00 72.75 69.00 80.25 69.00 84.00 C 48.33 84.00 27.67 84.00 7.00 84.00 C 7.00 80.25 7.00 72.75 7.00 69.00 C 5.67 69.00 4.33 69.00 3.00 69.00 C 3.00 47.33 3.00 25.67 3.00 4.00 M 12.00 11.00 C 12.00 11.75 12.00 13.25 12.00 14.00 C 15.75 14.00 23.25 14.00 27.00 14.00 C 27.00 13.25 27.00 11.75 27.00 11.00 C 23.25 11.00 15.75 11.00 12.00 11.00 M 12.00 19.00 C 12.00 19.75 12.00 21.25 12.00 22.00 C 15.75 22.00 23.25 22.00 27.00 22.00 C 27.00 21.25 27.00 19.75 27.00 19.00 C 23.25 19.00 15.75 19.00 12.00 19.00 M 12.00 27.00 C 12.00 27.75 12.00 29.25 12.00 30.00 C 15.75 30.00 23.25 30.00 27.00 30.00 C 27.00 29.25 27.00 27.75 27.00 27.00 C 23.25 27.00 15.75 27.00 12.00 27.00 M 12.00 35.00 C 12.00 35.75 12.00 37.25 12.00 38.00 C 15.75 38.00 23.25 38.00 27.00 38.00 C 27.00 37.25 27.00 35.75 27.00 35.00 C 23.25 35.00 15.75 35.00 12.00 35.00 M 12.00 43.00 C 12.00 43.75 12.00 45.25 12.00 46.00 C 15.75 46.00 23.25 46.00 27.00 46.00 C 27.00 45.25 27.00 43.75 27.00 43.00 C 23.25 43.00 15.75 43.00 12.00 43.00 M 12.00 51.00 C 12.00 51.75 12.00 53.25 12.00 54.00 C 15.75 54.00 23.25 54.00 27.00 54.00 C 27.00 53.25 27.00 51.75 27.00 51.00 C 23.25 51.00 15.75 51.00 12.00 51.00 M 12.00 59.00 C 12.00 59.75 12.00 61.25 12.00 62.00 C 15.75 62.00 23.25 62.00 27.00 62.00 C 27.00 61.25 27.00 59.75 27.00 59.00 C 23.25 59.00 15.75 59.00 12.00 59.00 M 12.00 67.00 C 12.00 67.75 12.00 69.25 12.00 70.00 C 15.75 70.00 23.25 70.00 27.00 70.00 C 27.00 69.25 27.00 67.75 27.00 67.00 C 23.25 67.00 15.75 67.00 12.00 67.00 M 12.00 75.00 C 12.00 75.75 12.00 77.25 12.00 78.00 C 15.75 78.00 23.25 78.00 27.00 78.00 C 27.00 77.25 27.00 75.75 27.00 75.00 C 23.25 75.00 15.75 75.00 12.00 75.00 Z" />
</g>
<g id="#939292ff">
<path fill="#939292" opacity="1.00" d=" M 32.00 4.00 C 43.00 4.00 54.00 4.00 65.00 4.00 C 65.00 22.33 65.00 40.67 65.00 59.00 C 54.00 59.00 43.00 59.00 32.00 59.00 C 32.00 40.67 32.00 22.33 32.00 4.00 Z" />
</g>
</svg>
