<?xml version="1.0" encoding="UTF-8" ?>
<!DOCTYPE svg PUBLIC "-//W3C//DTD SVG 1.1//EN" "http://www.w3.org/Graphics/SVG/1.1/DTD/svg11.dtd">
<svg width="464pt" height="438pt" viewBox="0 0 464 438" version="1.1" xmlns="http://www.w3.org/2000/svg">
<g id="#000000ff">
<path fill="#b5b5b5" opacity="1.00" d=" M 118.53 72.51 C 156.58 49.01 193.86 24.29 231.84 0.68 C 232.20 146.11 231.92 291.55 231.98 436.98 C 154.65 437.03 77.33 436.98 0.00 437.00 L 0.00 292.58 C 2.55 290.85 5.25 289.35 7.91 287.79 C 8.10 261.27 7.89 234.75 8.11 208.24 C 34.06 196.78 60.00 185.31 85.92 173.81 C 86.10 201.18 85.93 228.55 86.03 255.91 C 89.58 254.64 93.11 253.36 96.67 252.13 C 97.35 279.51 96.77 306.90 97.12 334.28 C 101.94 330.03 110.34 328.23 112.81 322.00 C 113.61 241.71 112.32 161.34 113.30 81.05 C 112.02 76.76 115.74 74.50 118.53 72.51 M 175.14 60.30 C 174.98 71.99 174.97 83.67 175.14 95.36 C 189.48 86.62 203.56 77.44 217.96 68.81 C 218.02 57.03 218.02 45.26 217.80 33.48 C 203.23 41.87 189.56 51.68 175.14 60.30 M 130.99 89.00 C 129.68 90.20 127.27 90.94 127.16 93.05 C 126.40 103.79 127.06 114.58 127.16 125.34 C 139.37 117.56 152.49 110.96 163.62 101.68 C 164.92 90.70 163.77 79.53 163.80 68.49 C 152.70 75.06 141.75 81.89 130.99 89.00 M 174.99 118.01 C 174.98 129.48 174.99 140.94 175.17 152.41 C 189.61 143.86 203.71 134.74 217.96 125.88 C 218.02 114.11 218.02 102.34 217.83 90.58 C 203.19 99.15 189.23 108.80 174.99 118.01 M 127.00 149.03 C 126.98 160.17 126.99 171.30 127.18 182.45 C 139.64 175.24 151.53 167.09 163.97 159.84 C 164.02 148.42 164.01 137.00 163.83 125.58 C 151.25 132.91 139.21 141.11 127.00 149.03 M 179.90 171.88 C 178.42 173.40 175.00 174.28 175.09 176.99 C 174.45 187.79 175.05 198.64 175.20 209.45 C 189.80 201.18 203.82 191.92 218.03 182.99 C 218.02 171.19 218.02 159.40 217.82 147.61 C 205.06 155.52 192.45 163.65 179.90 171.88 M 131.91 202.90 C 130.43 204.41 127.00 205.28 127.10 207.99 C 126.48 218.64 127.02 229.32 127.01 239.98 C 137.60 233.19 148.47 226.85 159.04 220.03 C 160.47 218.48 164.03 217.75 163.91 215.01 C 164.54 204.21 163.95 193.37 163.80 182.57 C 153.08 189.22 142.44 195.97 131.91 202.90 M 48.13 208.40 C 47.99 218.91 47.98 229.42 47.94 239.93 C 56.58 236.14 65.16 232.21 73.89 228.65 C 74.02 218.01 74.00 207.38 73.92 196.76 C 65.28 200.53 56.77 204.61 48.13 208.40 M 175.06 232.13 C 174.98 243.79 174.98 255.46 175.04 267.12 C 189.46 258.24 203.92 249.38 218.03 240.00 C 218.02 228.25 217.99 216.49 217.88 204.74 C 203.48 213.68 189.44 223.17 175.06 232.13 M 40.95 212.08 C 32.28 216.01 23.63 220.00 14.98 223.98 C 14.98 234.38 15.00 244.78 15.09 255.19 C 23.79 251.59 32.29 247.54 40.93 243.79 C 41.02 233.22 41.00 222.65 40.95 212.08 M 127.53 263.47 C 125.75 274.52 127.40 285.95 127.06 297.11 C 139.44 289.51 151.79 281.86 164.01 274.00 C 164.00 262.58 164.00 251.16 163.89 239.75 C 151.90 247.82 138.82 254.48 127.53 263.47 M 75.95 248.07 C 67.25 251.94 58.65 256.01 50.01 260.01 C 49.97 270.40 50.00 280.79 50.08 291.18 C 58.77 287.56 67.35 283.70 75.93 279.83 C 76.02 269.24 75.99 258.65 75.95 248.07 M 175.15 289.29 C 174.98 300.91 174.98 312.53 175.04 324.16 C 189.47 315.59 203.49 306.36 217.88 297.72 C 218.02 285.98 218.02 274.23 217.82 262.49 C 203.14 270.68 189.49 280.54 175.15 289.29 M 17.07 275.18 C 16.98 285.60 17.01 296.03 17.13 306.46 C 25.88 302.91 34.45 298.96 43.02 295.03 C 43.03 284.58 42.99 274.14 42.89 263.70 C 34.21 267.35 25.67 271.33 17.07 275.18 M 53.07 306.18 C 52.98 316.60 53.01 327.03 53.13 337.46 C 61.88 333.91 70.45 329.96 79.02 326.03 C 79.03 315.58 78.99 305.14 78.89 294.70 C 70.21 298.35 61.67 302.33 53.07 306.18 M 127.09 320.28 C 126.96 331.59 127.00 342.90 127.11 354.22 C 139.63 346.84 151.85 338.96 164.01 330.99 C 164.01 319.82 164.00 308.65 163.81 297.49 C 151.13 304.35 139.47 312.91 127.09 320.28 M 18.08 321.19 C 17.98 331.77 17.99 342.35 17.98 352.94 C 26.67 348.98 35.36 345.03 44.01 341.00 C 44.03 330.58 44.00 320.16 43.90 309.74 C 35.25 313.46 26.73 317.47 18.08 321.19 M 52.99 354.96 C 52.98 365.28 52.98 375.62 53.00 385.95 C 61.63 382.21 70.22 378.33 78.91 374.72 C 79.01 364.07 78.99 353.43 78.93 342.79 C 70.25 346.78 61.57 350.76 52.99 354.96 M 17.99 369.96 C 17.98 380.32 17.99 390.68 18.01 401.05 C 26.70 397.39 35.23 393.38 43.91 389.70 C 44.01 379.06 43.99 368.42 43.93 357.79 C 35.25 361.78 26.57 365.76 17.99 369.96 Z" />
<path fill="#b5b5b5" opacity="1.00" d=" M 242.99 2.05 C 274.63 22.74 306.31 43.38 337.96 64.06 C 338.05 188.37 337.99 312.68 337.99 437.00 C 306.33 437.01 274.67 437.02 243.02 436.99 C 242.97 292.01 243.03 147.03 242.99 2.05 Z" />
<path fill="#b5b5b5" opacity="1.00" d=" M 346.04 270.92 C 385.05 283.17 423.95 295.76 462.92 308.13 C 463.09 350.42 462.97 392.70 462.99 434.99 C 423.99 435.01 385.00 435.01 346.01 434.99 C 346.01 380.30 345.95 325.61 346.04 270.92 M 360.12 304.64 C 359.99 314.80 359.96 324.96 359.96 335.13 C 371.51 338.88 383.20 342.21 394.96 345.22 C 395.03 335.89 395.00 326.57 394.90 317.24 C 383.30 313.04 371.86 308.41 360.12 304.64 M 404.10 317.53 C 403.98 327.64 403.98 337.76 404.06 347.88 C 415.94 351.61 427.89 355.21 439.95 358.34 C 440.03 348.97 440.00 339.61 439.90 330.25 C 427.96 326.02 416.32 320.90 404.10 317.53 M 360.08 358.68 C 359.99 368.97 359.99 379.27 360.09 389.58 C 371.78 392.56 383.25 396.38 394.95 399.35 C 395.02 389.98 395.00 380.61 394.90 371.24 C 383.29 367.06 371.86 362.35 360.08 358.68 M 404.12 371.51 C 403.99 381.69 403.97 391.88 403.97 402.06 C 415.94 405.56 427.86 409.26 439.95 412.35 C 440.02 402.97 439.99 393.59 439.91 384.22 C 427.92 380.15 416.25 375.16 404.12 371.51 Z" />
</g>
</svg>
