<?xml version="1.0" encoding="UTF-8" ?>
<!DOCTYPE svg PUBLIC "-//W3C//DTD SVG 1.1//EN" "http://www.w3.org/Graphics/SVG/1.1/DTD/svg11.dtd">
<svg width="470pt" height="470pt" viewBox="0 0 470 470" version="1.1" xmlns="http://www.w3.org/2000/svg">
<g id="#bdc3c7ff">
<path fill="#bdc3c7" opacity="1.00" d=" M 210.44 1.64 C 247.88 -2.17 286.28 2.79 321.29 16.70 C 357.01 30.73 389.13 53.77 413.94 83.04 C 431.90 104.12 446.03 128.42 455.50 154.44 C 473.39 203.58 474.46 258.84 457.65 308.43 C 445.73 344.39 424.84 377.29 397.56 403.58 C 371.66 428.64 339.98 447.75 305.60 458.65 C 254.81 475.01 198.38 472.96 148.86 453.09 C 92.18 430.63 45.10 385.24 20.50 329.46 C 6.20 297.40 -0.80 262.11 0.55 227.01 C 1.95 177.67 19.64 128.97 50.21 90.21 C 75.74 57.55 110.11 31.85 148.71 16.70 C 168.45 8.84 189.32 3.92 210.44 1.64 M 70.51 97.54 C 44.93 128.62 28.05 167.00 23.37 207.04 C 27.56 207.89 31.80 208.46 36.05 208.88 C 68.37 212.91 100.68 216.99 133.00 221.01 C 138.87 221.71 144.70 222.77 150.62 222.93 C 153.62 200.22 166.62 179.48 184.86 165.82 C 180.52 159.34 175.53 153.33 170.95 147.02 C 151.69 121.31 132.24 95.73 113.06 69.96 C 111.27 67.37 109.26 64.92 107.05 62.68 C 93.29 72.46 81.21 84.51 70.51 97.54 M 227.41 171.45 C 207.76 173.65 189.41 185.43 179.63 202.67 C 171.90 216.05 169.13 232.33 172.52 247.46 C 175.94 264.65 187.04 279.84 201.67 289.27 C 217.19 299.08 237.02 301.04 254.40 295.46 C 271.64 290.11 286.16 276.89 293.42 260.40 C 298.64 249.13 300.17 236.25 297.99 224.04 C 295.20 206.11 284.11 189.71 268.47 180.49 C 256.38 172.84 241.58 169.77 227.41 171.45 M 320.11 243.00 C 318.15 258.75 312.56 274.18 302.73 286.75 C 298.35 292.92 292.52 297.76 287.06 302.92 C 309.30 332.37 331.42 361.91 353.61 391.41 C 356.66 395.36 359.32 399.63 362.87 403.17 C 400.13 375.39 427.62 334.91 440.25 290.22 C 442.97 279.77 445.93 269.16 446.08 258.30 C 408.65 253.83 371.28 248.95 333.88 244.24 C 329.32 243.55 324.73 242.97 320.11 243.00 Z" />
</g>
<g id="#ecf0f1ff">
<path fill="#ecf0f1" opacity="1.00" d=" M 70.51 97.54 C 81.21 84.51 93.29 72.46 107.05 62.68 C 109.26 64.92 111.27 67.37 113.06 69.96 C 132.24 95.73 151.69 121.31 170.95 147.02 C 175.53 153.33 180.52 159.34 184.86 165.82 C 166.62 179.48 153.62 200.22 150.62 222.93 C 144.70 222.77 138.87 221.71 133.00 221.01 C 100.68 216.99 68.37 212.91 36.05 208.88 C 31.80 208.46 27.56 207.89 23.37 207.04 C 28.05 167.00 44.93 128.62 70.51 97.54 Z" />
<path fill="#ecf0f1" opacity="1.00" d=" M 227.41 171.45 C 241.58 169.77 256.38 172.84 268.47 180.49 C 284.11 189.71 295.20 206.11 297.99 224.04 C 300.17 236.25 298.64 249.13 293.42 260.40 C 286.16 276.89 271.64 290.11 254.40 295.46 C 237.02 301.04 217.19 299.08 201.67 289.27 C 187.04 279.84 175.94 264.65 172.52 247.46 C 169.13 232.33 171.90 216.05 179.63 202.67 C 189.41 185.43 207.76 173.65 227.41 171.45 M 226.42 192.62 C 204.36 196.92 188.30 220.76 193.38 242.80 C 196.68 257.58 208.02 271.09 223.01 274.79 C 234.22 277.75 246.55 276.33 256.71 270.73 C 259.94 269.02 261.52 265.54 264.13 263.13 C 269.91 257.51 274.52 250.50 276.37 242.59 C 280.90 224.83 271.26 205.34 255.65 196.40 C 246.75 191.79 236.20 190.51 226.42 192.62 Z" />
<path fill="#ecf0f1" opacity="1.00" d=" M 320.11 243.00 C 324.73 242.97 329.32 243.55 333.88 244.24 C 371.28 248.95 408.65 253.83 446.08 258.30 C 445.93 269.16 442.97 279.77 440.25 290.22 C 427.62 334.91 400.13 375.39 362.87 403.17 C 359.32 399.63 356.66 395.36 353.61 391.41 C 331.42 361.91 309.30 332.37 287.06 302.92 C 292.52 297.76 298.35 292.92 302.73 286.75 C 312.56 274.18 318.15 258.75 320.11 243.00 Z" />
</g>
</svg>
