<?xml version="1.0" encoding="UTF-8" ?>
<!DOCTYPE svg PUBLIC "-//W3C//DTD SVG 1.1//EN" "http://www.w3.org/Graphics/SVG/1.1/DTD/svg11.dtd">
<svg width="470pt" height="460pt" viewBox="0 0 470 460" version="1.1" xmlns="http://www.w3.org/2000/svg">
<g id="#0e0f0fff">
<path fill="#b5b5b5" opacity="1.00" d=" M 343.38 0.00 L 354.63 0.00 C 361.95 1.92 369.32 4.18 375.82 8.17 C 390.48 17.75 399.79 35.17 397.81 52.91 C 397.34 78.72 372.66 100.58 347.08 98.84 C 321.00 98.48 298.33 74.42 299.37 48.35 C 300.49 36.30 304.58 24.01 313.28 15.27 C 321.36 7.17 332.15 1.98 343.38 0.00 Z" />
<path fill="#b5b5b5" opacity="1.00" d=" M 50.74 72.28 C 56.20 70.87 61.65 69.41 67.09 67.90 C 77.71 106.60 88.46 145.25 99.07 183.95 C 130.38 184.10 161.69 183.92 193.01 184.01 C 192.99 190.00 192.99 196.00 193.00 201.99 C 157.29 202.02 121.57 202.00 85.86 202.02 C 74.19 158.76 61.92 115.66 50.74 72.28 Z" />
<path fill="#b5b5b5" opacity="1.00" d=" M 325.68 131.65 C 335.39 108.99 363.13 95.13 386.98 103.03 C 405.49 109.15 418.19 127.47 420.54 146.43 C 426.41 187.41 422.46 229.57 410.03 269.01 C 406.65 280.83 400.99 291.83 397.59 303.64 C 395.01 312.97 388.56 322.06 378.91 324.84 C 370.79 327.16 362.27 326.93 353.95 327.92 C 332.81 329.97 311.82 337.67 295.55 351.53 C 274.05 369.26 262.39 396.34 257.22 423.14 C 254.95 432.39 253.63 443.37 245.40 449.43 C 228.65 460.84 203.27 451.22 196.01 432.94 C 193.29 426.09 192.92 418.52 194.34 411.33 C 200.59 376.55 215.06 342.47 239.74 316.74 C 255.65 299.16 275.94 285.72 297.93 276.97 C 299.92 276.06 302.06 275.31 303.76 273.88 C 312.28 251.54 319.69 228.64 322.71 204.83 C 290.32 218.72 253.71 222.72 219.14 215.75 C 210.96 214.16 203.15 208.92 200.03 200.99 C 193.20 183.80 205.78 161.19 224.61 159.66 C 231.45 158.67 238.23 160.30 245.02 160.88 C 272.02 164.34 299.34 154.76 321.02 138.97 C 323.43 137.20 324.38 134.22 325.68 131.65 Z" />
<path fill="#b5b5b5" opacity="1.00" d=" M 441.79 173.66 C 442.75 166.80 450.56 162.34 457.02 164.93 C 463.94 165.58 467.67 172.30 470.00 178.08 L 470.00 180.46 C 461.77 222.43 461.81 266.59 444.23 306.27 C 431.42 335.61 406.98 360.53 376.19 370.49 C 375.86 390.79 375.72 411.09 376.41 431.38 C 387.17 436.60 398.16 441.45 408.43 447.61 C 411.29 449.11 413.10 452.94 410.76 455.69 C 408.92 459.41 404.42 457.53 401.30 456.64 C 390.61 452.09 380.87 445.54 370.11 441.13 C 367.64 440.21 365.16 441.97 362.94 442.75 C 350.43 448.48 338.48 455.68 324.99 458.97 C 324.16 455.97 323.33 452.90 322.58 449.90 C 335.91 442.34 349.96 436.14 363.89 429.79 C 364.04 411.17 364.13 392.56 363.94 373.95 C 348.87 377.23 331.86 377.09 319.38 387.41 C 311.44 394.56 307.44 404.84 304.98 415.00 C 303.74 419.24 302.89 424.23 298.88 426.91 C 292.34 432.59 282.16 428.53 277.54 422.43 C 274.06 416.35 276.23 409.17 277.80 402.91 C 282.77 384.10 292.97 365.07 311.05 356.09 C 329.72 346.36 351.68 349.58 371.04 342.12 C 394.13 333.53 411.02 313.37 419.85 290.84 C 434.98 253.61 435.02 212.75 441.79 173.66 Z" />
<path fill="#b5b5b5" opacity="1.00" d=" M 0.99 216.02 C 67.99 215.97 134.99 215.99 202.00 216.01 C 202.00 230.64 202.02 245.27 202.03 259.90 C 194.36 259.97 186.68 260.04 179.02 260.11 C 178.96 326.74 179.02 393.37 179.00 460.00 L 24.00 460.00 C 23.98 393.36 24.03 326.73 23.99 260.10 C 16.33 260.02 8.67 259.95 1.00 259.89 C 1.00 245.27 0.99 230.64 0.99 216.02 Z" />
</g>
</svg>
