<?xml version="1.0" encoding="UTF-8" ?>
<!DOCTYPE svg PUBLIC "-//W3C//DTD SVG 1.1//EN" "http://www.w3.org/Graphics/SVG/1.1/DTD/svg11.dtd">
<svg width="286pt" height="296pt" viewBox="0 0 286 296" version="1.1" xmlns="http://www.w3.org/2000/svg">
<g id="#000000ff">
<path fill="#b5b5b5" opacity="1.00" d=" M 89.89 13.94 C 92.81 7.38 99.11 2.52 106.17 1.27 C 110.07 0.60 114.05 0.72 117.99 0.71 C 143.75 0.86 169.51 0.55 195.26 0.86 C 195.50 31.93 195.40 63.01 195.31 94.08 C 206.54 94.62 217.78 94.13 229.01 94.30 C 231.71 94.49 235.35 94.52 236.62 97.43 C 237.03 100.18 235.14 102.56 233.72 104.72 C 206.44 140.11 179.12 175.48 151.91 210.93 C 149.53 213.95 145.99 217.37 141.78 216.25 C 137.00 214.82 134.47 210.09 131.48 206.48 C 105.42 172.91 79.34 139.35 53.16 105.87 C 51.45 103.37 48.97 100.69 49.40 97.44 C 50.59 94.44 54.29 94.48 56.99 94.30 C 67.24 94.16 77.50 94.55 87.74 94.13 C 87.61 72.09 87.76 50.05 87.65 28.01 C 87.67 23.25 87.80 18.31 89.89 13.94 Z" />
<path fill="#b5b5b5" opacity="1.00" d=" M 11.65 203.71 C 18.69 202.00 26.03 202.92 33.20 202.88 C 33.47 222.57 33.30 242.26 33.27 261.95 C 70.51 262.41 107.76 262.01 145.00 262.14 C 180.91 262.02 216.82 262.40 252.73 261.95 C 252.70 242.26 252.53 222.57 252.80 202.88 C 259.97 202.91 267.30 202.00 274.35 203.71 C 280.35 205.31 284.00 210.94 286.00 216.45 L 286.00 288.76 C 284.28 292.74 280.55 295.62 276.07 295.23 C 191.38 295.31 106.69 295.22 22.00 295.28 C 16.74 295.20 11.41 295.74 6.22 294.75 C 3.14 294.17 1.46 291.24 0.00 288.77 L 0.00 216.47 C 1.99 210.95 5.65 205.31 11.65 203.71 Z" />
</g>
</svg>
