<?xml version="1.0" encoding="UTF-8" ?>
<!DOCTYPE svg PUBLIC "-//W3C//DTD SVG 1.1//EN" "http://www.w3.org/Graphics/SVG/1.1/DTD/svg11.dtd">
<svg width="480pt" height="448pt" viewBox="0 0 480 448" version="1.1" xmlns="http://www.w3.org/2000/svg">
<g id="#000000ff">
<path fill="#914040" opacity="1.00" d=" M 27.63 0.00 L 452.37 0.00 C 459.41 1.97 466.61 4.83 471.58 10.42 C 475.92 15.25 478.26 21.47 480.00 27.63 L 480.00 420.37 C 478.03 427.41 475.17 434.61 469.58 439.58 C 464.75 443.92 458.53 446.26 452.37 448.00 L 27.63 448.00 C 20.59 446.02 13.39 443.17 8.42 437.58 C 4.07 432.75 1.74 426.53 0.00 420.37 L 0.00 27.63 C 1.74 21.47 4.08 15.25 8.42 10.42 C 13.39 4.82 20.59 1.97 27.63 0.00 M 64.02 32.02 C 63.98 42.67 63.98 53.33 64.02 63.98 C 85.34 64.02 106.66 64.01 127.98 63.98 C 128.01 53.33 128.02 42.67 127.98 32.02 C 106.66 31.99 85.34 31.99 64.02 32.02 M 160.02 32.02 C 159.98 42.67 159.98 53.33 160.02 63.98 C 181.34 64.02 202.66 64.01 223.98 63.98 C 224.02 53.33 224.02 42.67 223.98 32.02 C 202.66 31.99 181.34 31.99 160.02 32.02 M 256.02 32.02 C 255.98 42.67 255.98 53.32 256.02 63.98 C 277.34 64.02 298.66 64.01 319.98 63.98 C 320.02 53.33 320.02 42.67 319.98 32.02 C 298.66 31.99 277.34 31.98 256.02 32.02 M 352.02 32.02 C 351.97 42.67 351.98 53.33 352.02 63.98 C 373.34 64.02 394.66 64.02 415.98 63.98 C 416.02 53.33 416.02 42.67 415.98 32.02 C 394.66 31.99 373.34 31.98 352.02 32.02 M 64.02 96.02 C 63.98 181.34 63.99 266.66 64.02 351.98 C 181.34 352.02 298.66 352.01 415.98 351.98 C 416.02 266.66 416.01 181.34 415.98 96.02 C 298.66 95.99 181.34 95.98 64.02 96.02 M 64.02 384.02 C 63.99 394.67 63.98 405.33 64.02 415.98 C 85.34 416.01 106.66 416.02 127.98 415.98 C 128.02 405.33 128.02 394.67 127.98 384.02 C 106.66 383.98 85.34 383.99 64.02 384.02 M 160.02 384.02 C 159.98 394.67 159.98 405.33 160.02 415.98 C 181.34 416.01 202.66 416.01 223.98 415.98 C 224.02 405.33 224.02 394.67 223.98 384.02 C 202.66 383.98 181.34 383.99 160.02 384.02 M 256.02 384.02 C 255.98 394.67 255.98 405.32 256.02 415.98 C 277.34 416.02 298.66 416.01 319.98 415.98 C 320.02 405.33 320.02 394.67 319.98 384.02 C 298.66 383.99 277.34 383.98 256.02 384.02 M 352.02 384.02 C 351.98 394.67 351.98 405.33 352.02 415.98 C 373.34 416.02 394.66 416.01 415.98 415.98 C 416.02 405.33 416.02 394.67 415.98 384.02 C 394.66 383.99 373.34 383.99 352.02 384.02 Z" />
<path fill="#914040" opacity="1.00" d=" M 100.46 142.47 C 110.06 133.83 122.18 127.84 135.04 126.21 C 147.29 124.77 160.43 126.97 170.42 134.58 C 182.89 143.04 190.30 156.56 197.82 169.20 C 198.98 170.66 199.73 173.31 202.03 173.06 C 205.87 172.08 208.72 169.04 211.99 166.95 C 224.62 158.12 239.11 150.17 254.98 150.52 C 276.20 151.26 295.58 165.74 304.16 184.87 C 297.69 182.49 291.96 178.39 285.22 176.70 C 274.09 173.48 261.93 173.81 251.13 178.13 C 235.37 183.96 222.76 197.10 216.76 212.71 C 208.83 232.66 212.33 256.58 225.46 273.54 C 230.28 280.27 236.71 285.51 242.73 291.09 C 236.15 295.70 228.56 298.56 221.67 302.67 C 207.67 309.43 193.56 316.17 178.65 320.70 C 174.40 321.94 169.42 323.08 165.39 320.57 C 158.85 316.68 153.75 310.90 148.41 305.58 C 143.03 299.62 137.57 293.71 132.67 287.35 C 116.78 267.47 101.76 246.76 89.68 224.32 C 83.84 212.13 80.04 198.58 80.92 184.97 C 81.76 169.00 88.83 153.46 100.46 142.47 Z" />
<path fill="#914040" opacity="1.00" d=" M 342.12 173.13 C 351.03 169.84 360.80 171.61 369.54 174.52 C 382.20 179.49 392.43 190.42 396.67 203.34 C 401.52 216.58 399.08 231.57 392.87 243.95 C 386.94 255.84 379.56 266.96 371.63 277.60 C 362.12 290.29 352.31 302.88 340.62 313.67 C 337.86 316.25 334.20 318.38 330.28 317.58 C 321.02 316.03 312.55 311.68 303.97 308.09 C 287.52 300.40 271.57 291.57 256.38 281.61 C 246.18 274.27 236.36 265.31 231.60 253.38 C 227.87 244.78 227.22 235.08 228.91 225.93 C 231.82 211.11 242.56 198.10 256.64 192.60 C 262.91 190.23 269.83 189.02 276.46 190.50 C 284.78 191.95 292.26 196.16 299.23 200.74 C 302.53 203.09 305.87 205.42 309.58 207.08 C 313.93 201.14 317.20 194.49 321.69 188.65 C 327.13 181.98 333.59 175.51 342.12 173.13 Z" />
</g>
</svg>
