<?xml version="1.0" encoding="UTF-8" ?>
<!DOCTYPE svg PUBLIC "-//W3C//DTD SVG 1.1//EN" "http://www.w3.org/Graphics/SVG/1.1/DTD/svg11.dtd">
<svg width="282pt" height="294pt" viewBox="0 0 282 294" version="1.1" xmlns="http://www.w3.org/2000/svg">
<g id="#000000ff">
<path fill="#b5b5b5" opacity="1.00" d=" M 64.26 0.00 L 69.48 0.00 C 89.53 2.99 108.58 12.00 124.22 24.80 C 129.71 29.85 136.44 35.81 136.00 44.01 C 136.99 49.25 132.99 53.32 129.45 56.44 C 116.18 64.42 100.34 67.38 85.00 67.07 C 71.68 67.16 57.15 66.12 46.01 57.97 C 40.39 53.41 35.20 47.23 34.26 39.81 C 33.77 32.03 34.40 23.84 37.64 16.65 C 42.72 6.74 53.42 1.11 64.26 0.00 M 64.33 22.33 C 56.26 22.48 55.52 32.02 55.39 38.02 C 71.18 48.92 91.98 45.60 109.55 41.61 C 96.86 31.12 81.11 22.42 64.33 22.33 Z" />
<path fill="#b5b5b5" opacity="1.00" d=" M 213.39 0.00 L 218.58 0.00 C 227.86 1.62 238.42 4.86 242.81 14.11 C 250.49 25.70 250.87 42.64 241.34 53.33 C 230.80 64.28 214.68 67.62 200.00 67.07 C 184.59 66.84 168.08 65.66 154.60 57.38 C 150.48 54.51 146.21 50.40 145.98 45.06 C 145.35 36.51 152.06 30.09 157.96 24.95 C 173.98 12.32 192.84 2.24 213.39 0.00 M 172.64 41.67 C 187.74 45.73 204.09 46.93 219.19 42.30 C 223.32 41.05 227.45 37.25 226.57 32.57 C 226.78 26.70 221.83 21.78 216.02 22.29 C 199.84 23.40 184.99 31.56 172.64 41.67 Z" />
<path fill="#b5b5b5" opacity="1.00" d=" M 9.39 78.46 C 20.74 76.04 32.48 77.13 44.00 76.89 C 72.25 77.45 100.56 75.89 128.76 78.14 C 129.18 101.08 129.23 124.04 128.70 146.99 C 91.18 148.93 53.56 147.96 16.02 147.81 C 8.42 149.08 2.88 143.17 0.00 136.92 L 0.00 87.68 C 2.97 84.52 4.98 79.82 9.39 78.46 Z" />
<path fill="#b5b5b5" opacity="1.00" d=" M 153.30 78.03 C 181.48 75.89 209.77 77.47 238.00 76.89 C 249.52 77.13 261.26 76.04 272.61 78.46 C 277.02 79.82 279.02 84.52 282.00 87.68 L 282.00 136.91 C 279.73 141.59 276.16 146.85 270.57 147.44 C 259.08 148.50 247.52 148.08 236.00 148.07 C 208.41 147.63 180.78 148.97 153.24 147.00 C 152.80 124.01 152.80 101.02 153.30 78.03 Z" />
<path fill="#b5b5b5" opacity="1.00" d=" M 16.87 171.72 C 19.46 164.07 28.92 162.37 35.97 162.89 C 66.90 163.29 97.89 162.03 128.78 164.00 C 128.72 207.33 130.16 250.72 127.91 294.00 L 27.17 294.00 C 22.19 291.82 16.44 287.97 16.06 282.07 C 15.41 258.72 16.35 235.36 15.94 212.00 C 16.07 198.58 15.14 185.06 16.87 171.72 Z" />
<path fill="#b5b5b5" opacity="1.00" d=" M 153.27 163.90 C 170.46 162.25 187.77 163.13 205.00 162.95 C 221.51 163.20 238.07 162.17 254.54 163.64 C 260.27 164.21 265.71 168.99 265.88 174.96 C 266.63 198.29 265.65 221.65 266.05 245.00 C 265.92 258.43 266.87 271.96 265.20 285.32 C 263.35 289.55 258.77 291.87 254.88 294.00 L 153.83 294.00 C 152.07 250.67 153.16 207.25 153.27 163.90 Z" />
</g>
</svg>
