<?xml version="1.0" encoding="UTF-8" ?>
<!DOCTYPE svg PUBLIC "-//W3C//DTD SVG 1.1//EN" "http://www.w3.org/Graphics/SVG/1.1/DTD/svg11.dtd">
<svg width="417pt" height="569pt" viewBox="0 0 417 569" version="1.1" xmlns="http://www.w3.org/2000/svg">
<g id="#231f20ff">
<path fill="#b5b5b5" opacity="1.00" d=" M 187.05 9.04 C 215.43 4.50 244.34 10.44 271.15 19.75 C 281.61 23.76 292.33 27.44 302.01 33.15 C 297.99 44.75 293.08 56.06 288.51 67.46 C 281.64 85.22 274.18 102.74 267.44 120.55 C 263.36 121.55 259.13 120.75 254.99 120.78 C 229.81 120.33 204.63 119.82 179.45 119.46 C 173.37 119.10 167.25 119.59 161.20 118.80 C 151.94 94.16 143.89 69.00 133.14 44.94 C 134.05 41.44 136.85 38.81 138.98 35.99 C 150.85 21.32 168.55 12.04 187.05 9.04 Z" />
<path fill="#b5b5b5" opacity="1.00" d=" M 66.51 72.43 C 67.69 72.01 68.64 72.77 69.52 73.45 C 90.10 89.89 110.74 106.25 131.33 122.68 C 134.08 124.90 137.05 126.88 139.51 129.43 C 140.16 134.03 139.19 138.69 139.81 143.31 C 145.38 140.26 148.98 134.67 154.25 131.19 C 157.71 130.18 161.43 131.06 165.00 130.95 C 196.69 131.42 228.37 132.18 260.06 132.70 C 263.86 132.54 266.34 135.82 269.13 137.87 C 272.66 141.02 277.00 143.28 280.00 146.97 C 277.00 151.54 272.98 155.32 269.78 159.75 C 268.67 160.90 267.81 162.89 265.95 162.81 C 237.63 162.70 209.33 161.68 181.01 161.53 C 171.44 161.07 161.84 161.39 152.29 160.77 C 147.08 155.61 143.45 148.95 137.81 144.23 C 110.65 128.16 83.86 111.45 56.79 95.23 C 55.88 94.54 54.59 94.10 54.17 92.95 C 57.94 85.92 62.39 79.25 66.51 72.43 Z" />
<path fill="#b5b5b5" opacity="1.00" d=" M 58.23 149.12 C 60.47 148.64 62.77 148.93 65.03 149.04 C 83.70 150.30 102.40 151.15 121.07 152.31 C 125.21 152.59 129.45 152.32 133.47 153.45 C 135.59 158.31 137.80 163.13 139.79 168.04 C 133.34 169.37 126.69 169.18 120.19 170.19 C 97.27 172.22 74.39 174.77 51.48 176.89 C 53.84 167.66 55.66 158.29 58.23 149.12 Z" />
<path fill="#b5b5b5" opacity="1.00" d=" M 156.34 167.29 C 157.72 166.49 159.42 166.80 160.94 166.73 C 193.30 168.19 225.68 169.17 258.04 170.60 C 260.55 170.46 262.54 172.14 264.38 173.62 C 294.54 198.22 322.37 225.72 347.13 255.76 C 364.12 277.19 379.76 299.91 391.21 324.82 C 398.56 340.54 404.16 357.17 406.75 374.37 C 410.52 396.52 407.62 419.25 401.94 440.81 C 393.60 473.89 374.52 504.51 347.11 525.09 C 339.91 530.50 332.18 535.20 324.06 539.12 C 315.06 543.81 305.17 546.33 295.60 549.59 C 232.31 568.05 163.25 565.88 101.09 543.98 C 85.32 538.71 70.12 531.29 57.11 520.85 C 40.32 507.72 27.77 489.52 20.53 469.53 C 9.42 437.57 9.81 402.45 17.63 369.79 C 18.52 364.27 18.80 358.65 20.25 353.22 C 25.80 330.50 36.36 309.34 48.48 289.46 C 76.09 245.09 112.44 206.94 150.85 171.82 C 152.61 170.23 154.29 168.51 156.34 167.29 M 194.23 216.22 C 192.75 222.15 194.13 228.34 193.41 234.37 C 172.70 236.70 151.62 240.85 133.33 251.33 C 118.36 259.90 105.43 273.00 99.31 289.34 C 94.00 304.29 93.39 321.47 99.88 336.16 C 107.00 351.25 120.48 362.51 135.27 369.74 C 153.33 379.07 173.57 383.00 193.59 385.34 C 193.55 408.48 193.62 431.63 193.55 454.77 C 191.68 455.53 189.61 454.69 187.70 454.48 C 172.53 451.51 156.93 447.16 144.67 437.32 C 139.32 433.31 136.87 426.31 130.72 423.24 C 120.35 417.78 106.07 420.53 98.74 429.78 C 94.04 435.75 93.97 444.52 98.22 450.75 C 103.99 459.47 111.72 466.82 120.37 472.65 C 139.28 485.53 161.61 492.49 184.10 495.73 C 187.26 496.17 190.46 496.40 193.53 497.28 C 193.86 502.19 193.30 507.11 193.64 512.02 C 193.85 516.18 196.63 519.68 199.68 522.28 C 207.33 528.22 219.94 526.63 225.25 518.26 C 229.88 512.21 226.08 504.15 228.32 497.46 C 250.80 495.20 273.70 490.80 293.55 479.49 C 308.26 470.99 320.89 458.09 327.17 442.14 C 333.30 424.98 333.02 405.00 324.23 388.79 C 316.03 374.14 301.86 363.78 286.57 357.45 C 268.01 349.77 247.83 347.26 227.95 345.75 C 227.18 339.53 227.83 333.25 227.63 327.01 C 227.78 309.95 227.34 292.87 227.83 275.82 C 237.98 275.86 248.03 278.26 257.68 281.26 C 267.00 284.44 276.32 288.60 283.49 295.52 C 287.30 299.08 289.55 304.09 293.87 307.12 C 303.29 313.74 317.33 312.63 325.57 304.57 C 331.06 299.41 332.40 290.60 329.34 283.83 C 325.68 276.54 320.06 270.39 313.94 265.08 C 291.90 246.62 263.21 237.82 234.94 235.22 C 232.60 234.77 229.80 235.32 227.79 233.89 C 226.76 226.76 229.69 218.47 224.64 212.38 C 217.34 201.95 198.61 204.11 194.23 216.22 Z" />
<path fill="#b5b5b5" opacity="1.00" d=" M 149.17 290.18 C 161.48 280.27 177.69 277.24 193.00 275.62 C 193.89 276.88 193.50 278.53 193.64 279.97 C 193.46 301.54 193.70 323.12 193.52 344.69 C 188.66 344.50 183.89 343.46 179.10 342.69 C 169.06 340.87 158.77 338.58 150.21 332.73 C 145.85 329.79 141.82 325.88 140.18 320.76 C 136.87 310.01 140.15 297.20 149.17 290.18 Z" />
<path fill="#b5b5b5" opacity="1.00" d=" M 227.83 387.02 C 240.38 387.76 253.13 388.95 265.12 392.96 C 273.70 395.95 282.35 402.01 284.48 411.36 C 286.45 420.54 284.86 431.18 278.17 438.16 C 271.39 445.79 261.30 449.06 251.81 451.84 C 243.93 453.73 235.97 455.64 227.86 456.17 C 227.30 441.13 227.80 426.05 227.63 411.00 C 227.79 403.01 227.31 395.00 227.83 387.02 Z" />
</g>
</svg>
