<?xml version="1.0" encoding="UTF-8" ?>
<!DOCTYPE svg PUBLIC "-//W3C//DTD SVG 1.1//EN" "http://www.w3.org/Graphics/SVG/1.1/DTD/svg11.dtd">
<svg width="384pt" height="384pt" viewBox="0 0 384 384" version="1.1" xmlns="http://www.w3.org/2000/svg">
<g id="#000000ff">
<path fill="#b5b5b5" opacity="1.00" d=" M 0.00 0.00 L 384.00 0.00 L 384.00 384.00 L 0.00 384.00 L 0.00 0.00 M 32.01 32.01 C 32.00 138.67 32.00 245.33 32.01 351.99 C 138.67 352.00 245.33 352.00 351.99 351.99 C 352.00 245.33 352.00 138.67 351.99 32.01 C 245.33 32.00 138.67 32.00 32.01 32.01 Z" />
<path fill="#b5b5b5" opacity="1.00" d=" M 64.00 128.00 C 149.33 128.00 234.67 128.00 320.00 128.00 C 319.99 138.67 319.99 149.33 320.00 160.00 C 234.67 160.00 149.33 160.00 64.00 160.00 C 64.01 149.33 64.00 138.67 64.00 128.00 Z" />
<path fill="#b5b5b5" opacity="1.00" d=" M 64.00 192.00 C 149.33 192.00 234.67 192.00 320.00 192.00 C 319.99 202.67 319.99 213.33 320.00 224.00 C 234.67 224.00 149.33 224.00 64.00 224.00 C 64.01 213.33 64.00 202.67 64.00 192.00 Z" />
<path fill="#b5b5b5" opacity="1.00" d=" M 64.00 256.00 C 128.00 255.99 192.00 256.00 256.00 256.00 C 256.00 266.67 256.00 277.33 256.00 288.00 C 192.00 288.00 128.00 288.00 64.00 288.00 C 64.00 277.33 64.00 266.67 64.00 256.00 Z" />
</g>
</svg>
