<?xml version="1.0" encoding="UTF-8" ?>
<!DOCTYPE svg PUBLIC "-//W3C//DTD SVG 1.1//EN" "http://www.w3.org/Graphics/SVG/1.1/DTD/svg11.dtd">
<svg width="480pt" height="448pt" viewBox="0 0 480 448" version="1.1" xmlns="http://www.w3.org/2000/svg">
<g id="#000000ff">
<path fill="#914040" opacity="1.00" d=" M 25.43 0.00 L 453.57 0.00 C 466.56 3.01 477.06 13.39 480.00 26.43 L 480.00 421.57 C 476.99 434.56 466.61 445.06 453.57 448.00 L 26.43 448.00 C 13.44 444.99 2.93 434.61 0.00 421.57 L 0.00 26.43 C 2.86 13.65 13.00 3.67 25.43 0.00 M 63.99 32.02 C 64.02 42.68 64.01 53.33 63.98 63.98 C 85.32 64.03 106.66 64.05 128.01 63.98 C 127.98 53.32 127.99 42.67 128.02 32.02 C 106.68 31.97 85.34 31.95 63.99 32.02 M 159.99 32.02 C 160.02 42.68 160.01 53.33 159.98 63.98 C 181.32 64.03 202.66 64.05 224.01 63.98 C 223.98 53.32 223.99 42.67 224.02 32.02 C 202.68 31.97 181.34 31.95 159.99 32.02 M 255.99 32.02 C 256.02 42.68 256.01 53.33 255.98 63.98 C 277.32 64.03 298.66 64.05 320.01 63.98 C 319.98 53.32 319.99 42.67 320.02 32.02 C 298.68 31.97 277.34 31.95 255.99 32.02 M 351.99 32.02 C 352.02 42.68 352.01 53.33 351.98 63.98 C 373.32 64.03 394.66 64.05 416.01 63.98 C 415.98 53.32 415.99 42.67 416.02 32.02 C 394.68 31.97 373.33 31.95 351.99 32.02 M 64.02 96.02 C 63.98 181.34 63.99 266.66 64.01 351.98 C 181.33 352.01 298.66 352.01 415.98 351.98 C 416.02 266.66 416.00 181.34 415.99 96.02 C 298.66 95.99 181.34 95.99 64.02 96.02 M 63.99 384.02 C 64.02 394.67 64.01 405.33 63.98 415.98 C 85.32 416.03 106.66 416.05 128.01 415.98 C 127.98 405.32 127.99 394.67 128.02 384.02 C 106.68 383.97 85.34 383.95 63.99 384.02 M 159.99 384.02 C 160.02 394.67 160.01 405.33 159.98 415.98 C 181.32 416.03 202.66 416.05 224.01 415.98 C 223.98 405.32 223.99 394.67 224.02 384.02 C 202.68 383.97 181.34 383.95 159.99 384.02 M 255.99 384.02 C 256.02 394.67 256.01 405.33 255.98 415.98 C 277.32 416.03 298.66 416.05 320.01 415.98 C 319.98 405.32 319.99 394.67 320.02 384.02 C 298.68 383.97 277.34 383.95 255.99 384.02 M 351.99 384.02 C 352.02 394.67 352.01 405.33 351.98 415.98 C 373.32 416.03 394.66 416.05 416.01 415.98 C 415.98 405.32 415.99 394.67 416.02 384.02 C 394.68 383.97 373.33 383.95 351.99 384.02 Z" />
<path fill="#914040" opacity="1.00" d=" M 160.00 128.01 C 215.35 155.64 270.65 183.37 326.01 210.98 C 334.53 215.31 343.33 219.18 351.47 224.22 C 287.69 256.22 223.81 288.04 160.01 320.01 C 159.98 256.01 160.01 192.01 160.00 128.01 Z" />
</g>
</svg>
