<?xml version="1.0" encoding="UTF-8"?>
<svg width="818.31" height="818.31" enable-background="new 0 0 1174.96 855.746" overflow="visible" version="1.1" viewBox="0 0 818.31 818.31" xml:space="preserve" xmlns="http://www.w3.org/2000/svg"><g transform="translate(-299.99 -.0010071)"><ellipse cx="708.06" cy="424.7" rx="364.48" ry="383.98" fill="#fff"/></g><g transform="translate(-299.99 -.0010071)" display="none"><g display="inline"><rect x="808.32" y="124.1" width="183.31" height="183.31" fill="#0a1623"/><rect x="991.65" y="124.1" width="183.31" height="183.31" fill="#fff"/><rect x="441.7" y="124.1" width="183.31" height="183.31" fill="#0a1623"/><rect x="625.03" y="124.1" width="183.31" height="183.31" fill="#fff"/><rect x="624.81" y="306.42" width="183.31" height="183.31" fill="#0a1623"/><rect x="808.14" y="306.42" width="183.31" height="183.31" fill="#fff"/><rect x="258.39" y="306.62" width="183.31" height="183.31" fill="#0a1623"/><rect x="441.73" y="306.62" width="183.31" height="183.31" fill="#fff"/><rect x="808.32" y="489.92" width="183.31" height="183.31" fill="#0a1623"/><rect x="991.65" y="489.92" width="183.31" height="183.31" fill="#fff"/><rect x="441.7" y="489.92" width="183.31" height="183.31" fill="#0a1623"/><rect x="625.03" y="489.92" width="183.31" height="183.31" fill="#fff"/><rect x="624.81" y="672.24" width="183.31" height="183.31" fill="#0a1623"/><rect x="808.14" y="672.24" width="183.31" height="183.31" fill="#fff"/><rect x="258.39" y="672.44" width="183.31" height="183.31" fill="#0a1623"/><rect x="441.73" y="672.44" width="183.31" height="183.31" fill="#fff"/></g></g><g transform="translate(-299.99 -.0010071)" fill="#0a1623"><rect x="431.19" y="368.64" width="122.22" height="122.22"/><rect x="553.87" y="245.98" width="122.22" height="122.22"/><rect x="677.66" y="122.21" width="122.23" height="122.22"/><rect x="456.96" y="148.65" width="97.328" height="97.327"/><rect transform="rotate(180.02 927.8 381.36)" x="866.69" y="320.25" width="122.22" height="122.22"/><rect transform="rotate(180.02 805.08 503.98)" x="743.97" y="442.87" width="122.22" height="122.22"/><rect transform="rotate(180.02 681.26 627.71)" x="620.14" y="566.6" width="122.23" height="122.22"/><rect transform="rotate(180.02 914.4 613.8)" x="865.74" y="565.13" width="97.328" height="97.327"/></g><g transform="translate(-299.99 -.0010071)"><circle cx="709.06" cy="410.7" r="301.48" fill="none" stroke="#0c1623" stroke-width="50"/></g><g transform="translate(-299.99 -.0010071)"><rect transform="matrix(.7068 .7074 -.7074 .7068 490.1 -396.09)" x="647.45" y="22.881" width="150.9" height="740.68" fill="#0c1623"/></g><g transform="translate(-299.99 -.0010071)" display="none"><g display="inline"><rect y="87.618" width="115" height="115" fill="#0a1623"/><rect x="115.02" y="87.618" width="115" height="115" fill="#fff"/></g></g><g transform="translate(-299.99 -.0010071)"><circle cx="709.14" cy="409.16" r="359.16" fill="none" stroke="#b5b5b5" stroke-width="100"/></g><g transform="translate(-299.99 -.0010071)"><line x1="429.08" x2="991.55" y1="688.69" y2="124.72" fill="none" stroke="#b5b5b5" stroke-width="100"/></g></svg>
