<svg xmlns="http://www.w3.org/2000/svg" viewBox="0 0 512 512"><path d="M256 8a248 248 0 1 0 0 496 248 248 0 0 0 0-496zm180 160h-84c-8-37-20-72-36-103 54 17 96 55 120 103zm16 128h-94c2-26 3-53 0-80h94c5 26 5 54 0 80zm-250 0c-3-26-3-53 0-80h108c3 27 3 53 0 80H202zm100 48c-9 42-25 80-46 109-21-29-37-67-46-109h92zM60 216h94c-2 26-3 52 0 80H60c-5-26-5-54 0-80zm149-48c10-42 26-80 47-109 21 29 37 67 47 109h-94zM196 65c-16 31-28 66-36 103H76c24-48 66-86 120-103zM76 344h84c8 37 20 72 36 103-54-17-97-56-120-103zm240 103c16-31 28-66 36-103h84c-24 47-66 86-120 103z"/></svg>