<?xml version="1.0" encoding="UTF-8"?>
<svg width="14px" height="14px" viewBox="0 0 14 14" version="1.1" xmlns="http://www.w3.org/2000/svg" xmlns:xlink="http://www.w3.org/1999/xlink">
    <!-- Generator: Sketch 52.6 (67491) - http://www.bohemiancoding.com/sketch -->
    <title>popularity</title>
    <desc>Created with Sketch.</desc>
    <g id="popularity" stroke="none" stroke-width="1" fill="none" fill-rule="evenodd">
        <path d="M7.6433049,0.653105611 C7.6433049,2.10227637 8.84868284,2.95829665 10.0314144,4.08172755 C11.1340394,5.12906825 12.2620799,6.4030691 12.2620799,8.76017967 C12.2620799,11.3800892 10.1843491,14 6.97982033,14 C3.77529154,14 1.74,11.3800898 1.74,8.76017967 C1.74,7.38566311 2.34076885,5.93401954 3.3040627,5.00374915 C3.65529761,4.66455522 4.360198,4.94624673 4.360198,5.43556101 C4.360198,6.15939813 4.38173711,6.73597201 4.360198,7.58760037 C4.31163435,9.50774315 6.0268408,9.96797041 7.03876191,9.40124534 C7.47734681,9.15561645 7.9688702,8.49858249 7.87293082,7.71221561 C7.79216421,7.05021241 7.24107638,6.33873909 6.45278408,5.62655348 C5.0451431,4.35481502 5.25278079,3.34974837 5.25278079,3.19634055 C5.25278079,2.26589186 5.94332373,1.08107326 6.45278408,0.302862128 C6.7860135,-0.206152645 7.6433049,-0.0630522052 7.6433049,0.653105611 Z" id="Path" fill="#000000" fill-rule="nonzero"></path>
    </g>
</svg>